<svg width="121" height="121" viewBox="0 0 121 121" fill="none" xmlns="http://www.w3.org/2000/svg">
<path d="M121 3.02499V35.6892C121 37.6496 120.046 39.4937 118.446 40.6281L87.2596 62.7164C87.2596 62.7164 87.2305 62.7339 87.2189 62.7455C85.7762 63.7868 84.8687 65.404 84.7291 67.1608C84.7116 67.3295 84.7058 67.4982 84.7058 67.6669V68.557V117.975C84.7058 119.645 83.3504 121 81.6808 121H79.383C78.3068 121 77.312 120.424 76.771 119.499L44.8631 64.7932C44.8631 64.7932 44.8514 64.7699 44.8398 64.7641C44.1417 63.6123 42.3558 64.1067 42.3558 65.468V117.975C42.3558 119.645 41.0004 121 39.3308 121H37.033C35.9568 121 34.962 120.424 34.421 119.499L1.22163 62.5884C0.418846 61.2214 0 59.6623 0 58.0742V3.02499C0 1.3496 1.35543 0 3.025 0H5.32284C6.39322 0 7.38798 0.5701 7.93481 1.49505L39.8427 56.201C40.535 57.3878 42.35 56.8991 42.35 55.5262V3.02499C42.35 1.3496 43.7054 0 45.375 0H47.6728C48.7432 0 49.738 0.5701 50.2848 1.49505L82.1927 56.201C82.885 57.3878 84.7 56.8991 84.7 55.5262V26.8178C84.7 23.9091 86.1078 21.1808 88.4813 19.4996L115.229 0.552634C115.741 0.191961 116.352 0 116.98 0H117.975C119.645 0 121 1.3496 121 3.02499Z" fill="#2C2A29"/>
</svg>
